<?xml version="1.0" encoding="UTF-8"?>
<svg width="96px" height="96px" viewBox="0 0 96 96" version="1.1" xmlns="http://www.w3.org/2000/svg" xmlns:xlink="http://www.w3.org/1999/xlink">
    <title>96x96@1x</title>
    <defs>
        <radialGradient cx="-3.46080694%" cy="-2.08438119%" fx="-3.46080694%" fy="-2.08438119%" r="175.581399%" gradientTransform="translate(-0.034608,-0.020844),scale(0.987805,1.000000),rotate(46.917166),translate(0.034608,0.020844)" id="radialGradient-1">
            <stop stop-color="#1F2480" offset="0%"></stop>
            <stop stop-color="#0F0926" offset="100%"></stop>
        </radialGradient>
        <text id="text-2" font-family="DINCondensed-Bold, DIN Condensed" font-size="30" font-style="condensed" font-weight="bold" fill="#FFFFFF">
            <tspan x="12" y="78">Code</tspan>
        </text>
        <filter x="-31.9%" y="-53.3%" width="163.8%" height="203.3%" filterUnits="objectBoundingBox" id="filter-3">
            <feOffset dx="0" dy="0" in="SourceAlpha" result="shadowOffsetOuter1"></feOffset>
            <feGaussianBlur stdDeviation="5" in="shadowOffsetOuter1" result="shadowBlurOuter1"></feGaussianBlur>
            <feColorMatrix values="0 0 0 0 0.283850761   0 0 0 0 0.0450647866   0 0 0 0 1  0 0 0 0.563483392 0" type="matrix" in="shadowBlurOuter1"></feColorMatrix>
        </filter>
        <rect id="path-4" x="71" y="18" width="8" height="20"></rect>
        <filter x="-187.5%" y="-75.0%" width="475.0%" height="250.0%" filterUnits="objectBoundingBox" id="filter-5">
            <feOffset dx="0" dy="0" in="SourceAlpha" result="shadowOffsetOuter1"></feOffset>
            <feGaussianBlur stdDeviation="5" in="shadowOffsetOuter1" result="shadowBlurOuter1"></feGaussianBlur>
            <feColorMatrix values="0 0 0 0 0.535565997   0 0 0 0 0   0 0 0 0 1  0 0 0 0.5 0" type="matrix" in="shadowBlurOuter1"></feColorMatrix>
        </filter>
    </defs>
    <g id="96x96" stroke="none" stroke-width="1" fill="none" fill-rule="evenodd">
        <path d="M13.409713,8 L82.590287,8 C84.8190838,8 85.6272994,8.23206403 86.4421143,8.66783176 C87.2569291,9.10359949 87.8964005,9.74307093 88.3321682,10.5578857 C88.767936,11.3727006 89,12.1809162 89,14.409713 L89,82.590287 C89,84.8190838 88.767936,85.6272994 88.3321682,86.4421143 C87.8964005,87.2569291 87.2569291,87.8964005 86.4421143,88.3321682 C85.6272994,88.767936 84.8190838,89 82.590287,89 L13.409713,89 C11.1809162,89 10.3727006,88.767936 9.55788574,88.3321682 C8.74307093,87.8964005 8.10359949,87.2569291 7.66783176,86.4421143 C7.23206403,85.6272994 7,84.8190838 7,82.590287 L7,14.409713 C7,12.1809162 7.23206403,11.3727006 7.66783176,10.5578857 C8.10359949,9.74307093 8.74307093,9.10359949 9.55788574,8.66783176 C10.3727006,8.23206403 11.1809162,8 13.409713,8 Z" id="Rectangle" fill="url(#radialGradient-1)"></path>
        <g id="Code" fill="#FFFFFF" fill-opacity="1">
            <use filter="url(#filter-3)" xlink:href="#text-2"></use>
            <use xlink:href="#text-2"></use>
        </g>
        <g id="Rectangle">
            <use fill="black" fill-opacity="1" filter="url(#filter-5)" xlink:href="#path-4"></use>
            <use fill="#FFFFFF" fill-rule="evenodd" xlink:href="#path-4"></use>
        </g>
    </g>
</svg>